<svg preserveAspectRatio="none" overflow="visible" style="display: block;" width="22" height="22" viewBox="0 0 22 22" fill="none" xmlns="http://www.w3.org/2000/svg">
<g id="Frame" clip-path="url(#clip0_0_49)">
<path id="Vector" d="M11 0.916666V2.13886" stroke="black" stroke-width="1.5" stroke-linecap="round" stroke-linejoin="round"/>
<path id="Vector_2" d="M18.1304 3.86952L17.2663 4.73367" stroke="black" stroke-width="1.5" stroke-linecap="round" stroke-linejoin="round"/>
<path id="Vector_3" d="M21.0832 11H19.8611" stroke="black" stroke-width="1.5" stroke-linecap="round" stroke-linejoin="round"/>
<path id="Vector_4" d="M3.86952 3.86952L4.73367 4.73367" stroke="black" stroke-width="1.5" stroke-linecap="round" stroke-linejoin="round"/>
<path id="Vector_5" d="M0.916666 11H2.13886" stroke="black" stroke-width="1.5" stroke-linecap="round" stroke-linejoin="round"/>
<path id="Vector_6" d="M16.8055 11C16.8055 7.38302 13.4988 4.53869 9.74353 5.32666C7.45525 5.8069 5.64795 7.72035 5.27331 10.0281C4.80957 12.8855 6.4372 15.4236 8.86114 16.3863V18.6389C8.86114 19.6513 9.68193 20.4722 10.6945 20.4722H11.3055C12.318 20.4722 13.1389 19.6513 13.1389 18.6389V16.3863C15.2839 15.5344 16.8055 13.4493 16.8055 11Z" stroke="black" stroke-width="1.5" stroke-linecap="round" stroke-linejoin="round"/>
<path id="Vector_7" d="M8.42967 16.1944H13.5703" stroke="black" stroke-width="1.5" stroke-linecap="round" stroke-linejoin="round"/>
</g>
<defs>
<clipPath id="clip0_0_49">
<rect width="22" height="22" fill="white"/>
</clipPath>
</defs>
</svg>
