<svg preserveAspectRatio="none" overflow="visible" style="display: block;" width="19" height="19" viewBox="0 0 19 19" fill="none" xmlns="http://www.w3.org/2000/svg">
<g id="Frame">
<path id="Vector" d="M14.8977 6.54901C15.2158 6.46948 15.5381 6.6629 15.6177 6.98102C15.6972 7.29915 15.5038 7.62152 15.1857 7.70105L12.019 8.49268C11.7009 8.57225 11.3785 8.37884 11.299 8.06067C11.2194 7.74257 11.4129 7.4202 11.731 7.34067L14.8977 6.54901Z" fill="black"/>
<path id="Vector_2" d="M14.8977 9.71565C15.2158 9.63617 15.5381 9.82957 15.6177 10.1477C15.6972 10.4658 15.5038 10.7882 15.1857 10.8677L12.019 11.6594C11.7009 11.7389 11.3785 11.5455 11.299 11.2273C11.2194 10.9092 11.4129 10.5869 11.731 10.5073L14.8977 9.71565Z" fill="black"/>
<path id="Vector_3" d="M3.38231 6.98102C3.46184 6.6629 3.78421 6.46948 4.10234 6.54901L7.269 7.34067C7.58713 7.4202 7.78055 7.74257 7.70102 8.06067C7.62149 8.37884 7.29912 8.57225 6.981 8.49268L3.81433 7.70105C3.4962 7.62152 3.30278 7.29915 3.38231 6.98102Z" fill="black"/>
<path id="Vector_4" d="M3.38231 10.1477C3.46184 9.82957 3.78421 9.63617 4.10234 9.71565L7.269 10.5073C7.58713 10.5869 7.78055 10.9092 7.70102 11.2273C7.62149 11.5455 7.29912 11.7389 6.981 11.6594L3.81433 10.8677C3.4962 10.7882 3.30278 10.4658 3.38231 10.1477Z" fill="black"/>
<path id="Vector_5" fill-rule="evenodd" clip-rule="evenodd" d="M18.0104 3.90547C18.0104 2.74702 17.0879 1.75353 15.8776 1.79569C14.9764 1.82708 13.7984 1.92082 12.8922 2.19212C12.1045 2.42794 11.2184 2.88857 10.5277 3.28831C9.88008 3.66314 9.07385 3.68184 8.41763 3.33488C7.62958 2.91815 6.59273 2.4242 5.69316 2.18682C4.93252 1.9861 3.97034 1.88969 3.18916 1.84169C1.95555 1.76587 0.989583 2.76979 0.989583 3.95662V12.7803C0.989583 13.9965 1.97424 14.946 3.14137 15.019C3.90038 15.0665 4.75448 15.1578 5.39017 15.3256C6.17595 15.5329 7.14764 15.994 7.93218 16.4121C8.90855 16.9326 10.0915 16.9326 11.0678 16.4121C11.8524 15.994 12.8241 15.5329 13.6099 15.3256C14.2455 15.1578 15.0996 15.0665 15.8587 15.019C17.0257 14.946 18.0104 13.9965 18.0104 12.7803V3.90547ZM15.9189 2.98247C16.4056 2.96551 16.8229 3.36588 16.8229 3.90547V12.7803C16.8229 13.3233 16.373 13.797 15.7845 13.8338C15.0086 13.8823 14.0593 13.9788 13.3068 14.1773C12.3803 14.4219 11.3071 14.9388 10.5092 15.3642C10.376 15.4352 10.2366 15.4912 10.0938 15.532V4.70414C10.4518 4.63246 10.8 4.50277 11.1225 4.31609C11.7958 3.92644 12.5835 3.52412 13.2328 3.32973C13.9842 3.10477 15.0331 3.01332 15.9189 2.98247ZM8.90625 4.73022C8.54604 4.67421 8.19296 4.55935 7.86257 4.38465C7.08927 3.97575 6.15185 3.53601 5.39017 3.33502C4.74717 3.16534 3.88105 3.07395 3.11631 3.02695C2.61442 2.9961 2.17708 3.40468 2.17708 3.95662V12.7803C2.17708 13.3233 2.627 13.797 3.2155 13.8338C3.99139 13.8823 4.94073 13.9788 5.69316 14.1773C6.61968 14.4219 7.69284 14.9388 8.49078 15.3642C8.62402 15.4352 8.76336 15.4912 8.90625 15.532V4.73022Z" fill="black"/>
</g>
</svg>
